<svg width="26" height="22" viewBox="0 0 26 22" fill="none" xmlns="http://www.w3.org/2000/svg">
<rect x="1.14844" y="1.32471" width="22.9126" height="18.8871" rx="4" stroke="#00BD39" stroke-width="2"/>
<rect width="2.77246" height="2.77246" transform="matrix(-1 0 0 1 4.52344 3.8916)" fill="#00BD39"/>
<rect width="2.77246" height="2.77246" transform="matrix(-1 0 0 1 4.52344 14.8906)" fill="#00BD39"/>
<rect width="2.77246" height="2.77246" transform="matrix(-1 0 0 1 4.52344 9.41895)" fill="#00BD39"/>
<rect width="2.77246" height="2.77246" transform="matrix(-1 0 0 1 15.6562 1.14697)" fill="#00BD39"/>
<rect width="2.77246" height="2.77246" transform="matrix(-1 0 0 1 15.6562 12.146)" fill="#00BD39"/>
<rect width="2.77246" height="2.77246" transform="matrix(-1 0 0 1 15.6562 17.6733)" fill="#00BD39"/>
<rect width="2.77246" height="2.77246" transform="matrix(-1 0 0 1 15.6562 3.8916)" fill="#00BD39"/>
<rect width="2.77246" height="2.77246" transform="matrix(-1 0 0 1 10.1006 1.14697)" fill="#00BD39"/>
<rect width="2.77246" height="2.77246" transform="matrix(-1 0 0 1 10.1006 14.8906)" fill="#00BD39"/>
<rect width="2.77246" height="2.77246" transform="matrix(-1 0 0 1 10.1006 9.41895)" fill="#00BD39"/>
<rect width="2.77246" height="2.77246" transform="matrix(-1 0 0 1 21.2031 1.14697)" fill="#00BD39"/>
<rect width="2.77246" height="2.77246" transform="matrix(-1 0 0 1 21.2031 17.6733)" fill="#00BD39"/>
<rect width="2.77246" height="2.77246" transform="matrix(-1 0 0 1 21.2031 3.8916)" fill="#00BD39"/>
<rect width="2.77246" height="2.77246" transform="matrix(-1 0 0 1 21.2031 14.8906)" fill="#00BD39"/>
<rect width="2.77246" height="2.77246" transform="matrix(-1 0 0 1 21.2031 9.41895)" fill="#00BD39"/>
<rect width="2.77246" height="2.77246" transform="matrix(-1 0 0 1 7.29492 1.14697)" fill="#00BD39"/>
<rect width="2.77246" height="2.77246" transform="matrix(-1 0 0 1 7.29492 12.146)" fill="#00BD39"/>
<rect width="2.77246" height="2.77246" transform="matrix(-1 0 0 1 7.29492 6.67432)" fill="#00BD39"/>
<rect width="2.77246" height="2.77246" transform="matrix(-1 0 0 1 7.29492 17.6733)" fill="#00BD39"/>
<rect width="2.77246" height="2.77246" transform="matrix(-1 0 0 1 7.29492 14.8906)" fill="#00BD39"/>
<rect width="2.77246" height="2.77246" transform="matrix(-1 0 0 1 18.4277 6.67432)" fill="#00BD39"/>
<rect width="2.77246" height="2.77246" transform="matrix(-1 0 0 1 18.4277 14.8906)" fill="#00BD39"/>
<rect width="2.77246" height="2.77246" transform="matrix(-1 0 0 1 18.4277 9.41895)" fill="#00BD39"/>
<rect width="2.77246" height="2.77246" transform="matrix(-1 0 0 1 12.8721 6.67432)" fill="#00BD39"/>
<rect width="2.77246" height="2.77246" transform="matrix(-1 0 0 1 12.8721 17.6733)" fill="#00BD39"/>
<rect width="2.77246" height="2.77246" transform="matrix(-1 0 0 1 12.8721 3.8916)" fill="#00BD39"/>
<rect width="2.77246" height="2.77246" transform="matrix(-1 0 0 1 24.0059 12.146)" fill="#00BD39"/>
<rect width="2.77246" height="2.77246" transform="matrix(-1 0 0 1 24.0059 6.67432)" fill="#00BD39"/>
</svg>
