<svg width="16" height="17" viewBox="0 0 16 17" fill="none" xmlns="http://www.w3.org/2000/svg">
<path d="M5.65466 5.13916H3.36523C2.26067 5.13916 1.36523 6.03459 1.36523 7.13916V13.8989C1.36523 15.0034 2.26067 15.8989 3.36524 15.8989H8.73341C9.83798 15.8989 10.7334 15.0034 10.7334 13.8989V12.0797" stroke="#284C38" stroke-width="2"/>
<path d="M6.98828 12.7338H12.3565C13.461 12.7338 14.3565 11.8384 14.3565 10.7338V5.13977C14.3565 4.56608 14.1101 4.02002 13.68 3.64037L12.3595 2.47472C11.9941 2.15214 11.5234 1.97412 11.036 1.97412H6.98828C5.88371 1.97412 4.98828 2.86955 4.98828 3.97412V10.7338C4.98828 11.8384 5.88371 12.7338 6.98828 12.7338Z" stroke="#284C38" stroke-width="2"/>
</svg>
