<svg width="28" height="24" viewBox="0 0 28 24" fill="none" xmlns="http://www.w3.org/2000/svg">
<rect width="3.03858" height="3.03858" rx="1" transform="matrix(-1 0 0 1 4.88086 4.77979)" fill="#00BD39"/>
<rect width="3.03858" height="3.03858" rx="1" transform="matrix(-1 0 0 1 4.88086 16.8345)" fill="#00BD39"/>
<rect width="3.03858" height="3.03858" rx="1" transform="matrix(-1 0 0 1 4.88086 10.8379)" fill="#00BD39"/>
<rect width="3.03858" height="3.03858" rx="1" transform="matrix(-1 0 0 1 17.082 1.77197)" fill="#00BD39"/>
<rect width="3.03858" height="3.03858" rx="1" transform="matrix(-1 0 0 1 17.082 13.8267)" fill="#00BD39"/>
<rect width="3.03858" height="3.03858" rx="1" transform="matrix(-1 0 0 1 17.082 19.8843)" fill="#00BD39"/>
<rect width="3.03858" height="3.03858" rx="1" transform="matrix(-1 0 0 1 17.082 4.77979)" fill="#00BD39"/>
<rect width="3.03858" height="3.03858" rx="1" transform="matrix(-1 0 0 1 10.9932 1.77197)" fill="#00BD39"/>
<rect width="3.03858" height="3.03858" rx="1" transform="matrix(-1 0 0 1 10.9932 16.8345)" fill="#00BD39"/>
<rect width="3.03858" height="3.03858" rx="1" transform="matrix(-1 0 0 1 10.9932 10.8379)" fill="#00BD39"/>
<rect width="3.03858" height="3.03858" rx="1" transform="matrix(-1 0 0 1 23.1621 1.77197)" fill="#00BD39"/>
<rect width="3.03858" height="3.03858" rx="1" transform="matrix(-1 0 0 1 23.1621 19.8843)" fill="#00BD39"/>
<rect width="3.03858" height="3.03858" rx="1" transform="matrix(-1 0 0 1 23.1621 4.77979)" fill="#00BD39"/>
<rect width="3.03858" height="3.03858" rx="1" transform="matrix(-1 0 0 1 23.1621 16.8345)" fill="#00BD39"/>
<rect width="3.03858" height="3.03858" rx="1" transform="matrix(-1 0 0 1 23.1621 10.8379)" fill="#00BD39"/>
<rect width="3.03858" height="3.03858" rx="1" transform="matrix(-1 0 0 1 7.91797 1.77197)" fill="#00BD39"/>
<rect width="3.03858" height="3.03858" rx="1" transform="matrix(-1 0 0 1 7.91797 13.8267)" fill="#00BD39"/>
<rect width="3.03858" height="3.03858" rx="1" transform="matrix(-1 0 0 1 7.91797 7.82959)" fill="#00BD39"/>
<rect width="3.03858" height="3.03858" rx="1" transform="matrix(-1 0 0 1 7.91797 19.8843)" fill="#00BD39"/>
<rect width="3.03858" height="3.03858" rx="1" transform="matrix(-1 0 0 1 7.91797 16.8345)" fill="#00BD39"/>
<rect width="3.03858" height="3.03858" rx="1" transform="matrix(-1 0 0 1 20.1201 7.82959)" fill="#00BD39"/>
<rect width="3.03858" height="3.03858" rx="1" transform="matrix(-1 0 0 1 20.1201 16.8345)" fill="#00BD39"/>
<rect width="3.03858" height="3.03858" rx="1" transform="matrix(-1 0 0 1 20.1201 10.8379)" fill="#00BD39"/>
<rect width="3.03858" height="3.03858" rx="1" transform="matrix(-1 0 0 1 14.0312 7.82959)" fill="#00BD39"/>
<rect width="3.03858" height="3.03858" rx="1" transform="matrix(-1 0 0 1 14.0312 19.8843)" fill="#00BD39"/>
<rect width="3.03858" height="3.03858" rx="1" transform="matrix(-1 0 0 1 14.0312 4.77979)" fill="#00BD39"/>
<rect width="3.03858" height="3.03858" rx="1" transform="matrix(-1 0 0 1 26.2334 13.8267)" fill="#00BD39"/>
<rect width="3.03858" height="3.03858" rx="1" transform="matrix(-1 0 0 1 26.2334 7.82959)" fill="#00BD39"/>
</svg>
