<svg width="26" height="26" viewBox="0 0 26 26" xmlns="http://www.w3.org/2000/svg">
    <g clip-path="url(#clip0_13_37)">
        <path fill-rule="evenodd" clip-rule="evenodd"
              d="M12.6923 0.227051C5.8031 0.227051 0.233887 5.83733 0.233887 12.778C0.233887 18.3261 3.80228 23.0224 8.75258 24.6845C9.37149 24.8095 9.5982 24.4145 9.5982 24.0822C9.5982 23.7912 9.5778 22.7939 9.5778 21.7547C6.11218 22.5029 5.39049 20.2585 5.39049 20.2585C4.83355 18.8039 4.00833 18.4301 4.00833 18.4301C2.87403 17.6612 4.09095 17.6612 4.09095 17.6612C5.34918 17.7444 6.00941 18.9496 6.00941 18.9496C7.12305 20.8611 8.91757 20.321 9.63951 19.9885C9.74254 19.178 10.0728 18.617 10.4234 18.3054C7.65934 18.0144 4.75118 16.9339 4.75118 12.1129C4.75118 10.7415 5.2459 9.61942 6.02981 8.74676C5.90613 8.43514 5.47286 7.14656 6.15375 5.42191C6.15375 5.42191 7.20567 5.08937 9.57754 6.71023C10.593 6.4355 11.6403 6.29574 12.6923 6.29456C13.7442 6.29456 14.8165 6.44017 15.8067 6.71023C18.1789 5.08937 19.2308 5.42191 19.2308 5.42191C19.9117 7.14656 19.4781 8.43514 19.3545 8.74676C20.159 9.61942 20.6334 10.7415 20.6334 12.1129C20.6334 16.9339 17.7252 17.9935 14.9405 18.3054C15.3944 18.7002 15.7861 19.4481 15.7861 20.6326C15.7861 22.3157 15.7657 23.6665 15.7657 24.0819C15.7657 24.4145 15.9926 24.8095 16.6113 24.6848C21.5616 23.0221 25.13 18.3261 25.13 12.778C25.1504 5.83733 19.5608 0.227051 12.6923 0.227051Z"
              fill="#91ffc5" />
    </g>
    <defs>
        <clipPath id="clip0_13_37">
            <rect width="24.8962" height="24.8962" transform="translate(0.233887 0.227051)"/>
        </clipPath>
    </defs>
</svg>
