<svg width="261" height="516" viewBox="0 0 261 516" fill="none" xmlns="http://www.w3.org/2000/svg">
<path d="M0.75 22.3151C0.75 20.0625 0.750583 18.4182 0.856503 17.1218C0.961707 15.8342 1.16708 14.956 1.5402 14.2237C2.23528 12.8595 3.34439 11.7504 4.70857 11.0553C5.44087 10.6822 6.31905 10.4768 7.60669 10.3716C8.90308 10.2657 10.5474 10.2651 12.8 10.2651H174.809L174.893 10.2652C175.373 10.2655 175.75 10.2657 176.109 10.1674C176.425 10.0808 176.723 9.93837 176.989 9.74689C177.292 9.5294 177.529 9.23551 177.83 8.86195L177.882 8.79688L181.219 4.66546C182.033 3.65793 182.613 2.93997 183.111 2.42175C183.604 1.90875 183.962 1.64989 184.309 1.51343C185.009 1.23743 185.784 1.2133 186.501 1.44516C186.855 1.5598 187.229 1.79585 187.752 2.27718C188.282 2.76342 188.906 3.44385 189.781 4.39878L193.98 8.98332L194.033 9.04036C194.332 9.36758 194.568 9.62514 194.857 9.81478L195.268 9.18761L194.857 9.81479C195.112 9.98189 195.392 10.1055 195.688 10.1805C196.023 10.2657 196.372 10.2654 196.816 10.2652L196.893 10.2651H247.511C249.763 10.2651 251.407 10.2657 252.704 10.3716C253.991 10.4768 254.87 10.6822 255.602 11.0553C256.966 11.7504 258.075 12.8595 258.77 14.2237C259.143 14.956 259.349 15.8342 259.454 17.1218C259.56 18.4182 259.561 20.0626 259.561 22.3151V503.051C259.561 505.304 259.56 506.948 259.454 508.244C259.349 509.532 259.143 510.41 258.77 511.142C258.075 512.507 256.966 513.616 255.602 514.311C254.87 514.684 253.991 514.889 252.704 514.995C251.407 515.1 249.763 515.101 247.511 515.101H12.8C10.5474 515.101 8.90308 515.1 7.60669 514.995C6.31905 514.889 5.44087 514.684 4.70857 514.311C3.3444 513.616 2.23529 512.507 1.5402 511.142C1.16708 510.41 0.961707 509.532 0.856503 508.244C0.750583 506.948 0.75 505.304 0.75 503.051V22.3151Z" fill="#0E0E0E" stroke="#161716" stroke-width="1.5"/>
</svg>
