<svg width="200" height="53" viewBox="0 0 200 53" fill="none" xmlns="http://www.w3.org/2000/svg">
<path d="M9.44531 41.2046H2.0625V7.79053H9.44531V41.2046ZM46.3594 41.9429L40.207 39.4819C39.3867 40.0288 38.4844 40.4572 37.5 40.7671C36.5156 41.0588 35.4583 41.2046 34.3281 41.2046H23.418C19.4987 41.2046 16.4089 39.5002 14.1484 36.0913C12.1068 33.0288 11.0859 29.2554 11.0859 24.771C11.0859 20.2137 12.125 16.3309 14.2031 13.1226C16.5 9.56787 19.5716 7.79053 23.418 7.79053H34.3281C38.1745 7.79053 41.2461 9.55876 43.543 13.0952C45.6211 16.3035 46.6602 20.1955 46.6602 24.771C46.6602 27.9611 46.1042 30.8595 44.9922 33.4663L46.3594 34.0679V41.9429ZM37.6094 30.3491C37.9922 29.5106 38.2839 28.5444 38.4844 27.4507C38.6849 26.3569 38.7852 25.2632 38.7852 24.1694C38.7852 21.6174 38.3203 19.4754 37.3906 17.7437C36.3516 15.8114 34.9206 14.8452 33.0977 14.8452H24.6484C22.8438 14.8452 21.4219 15.8114 20.3828 17.7437C19.4531 19.4754 18.9883 21.6174 18.9883 24.1694C18.9883 26.8127 19.4622 29.0549 20.4102 30.896C21.4674 32.9377 22.8802 33.9585 24.6484 33.9585H26.3164V25.5093L37.6094 30.3491ZM93.418 14.8452H78.3242C76.9206 14.8452 75.7448 15.4194 74.7969 16.5679C73.9401 17.5887 73.3294 19.0015 72.9648 20.8062H86.1172C88.9427 20.8062 91.1758 21.8634 92.8164 23.978C94.293 25.8739 95.0312 28.2163 95.0312 31.0054C95.0312 33.7762 94.293 36.1187 92.8164 38.0327C91.1758 40.1473 88.9427 41.2046 86.1172 41.2046H77.0938C73.1745 41.2046 70.0755 39.5002 67.7969 36.0913C65.7552 33.0288 64.7344 29.2554 64.7344 24.771C64.7344 20.2137 65.7734 16.3309 67.8516 13.1226C70.1484 9.56787 73.2292 7.79053 77.0938 7.79053H93.418V14.8452ZM84.9141 33.9585C85.6797 33.9585 86.2812 33.6577 86.7188 33.0562C87.1562 32.4364 87.375 31.7163 87.375 30.896C87.375 30.1121 87.1745 29.4559 86.7734 28.9272C86.3177 28.3257 85.6979 28.0249 84.9141 28.0249H73.0469C73.4661 29.7931 74.1042 31.1968 74.9609 32.2358C75.9089 33.3843 77.0299 33.9585 78.3242 33.9585H84.9141ZM117.426 28.0796H104.273C101.484 28.0796 99.2604 27.0223 97.6016 24.9077C96.1068 22.9937 95.3594 20.6603 95.3594 17.9077C95.3594 15.1187 96.0977 12.7762 97.5742 10.8804C99.2148 8.76579 101.448 7.7085 104.273 7.7085H113.324C117.243 7.7085 120.342 9.41292 122.621 12.8218C124.663 15.8843 125.684 19.6486 125.684 24.1147C125.684 28.672 124.645 32.5549 122.566 35.7632C120.27 39.2996 117.189 41.0679 113.324 41.0679H96.9727V34.0679H112.094C113.479 34.0679 114.646 33.4845 115.594 32.3179C116.451 31.2788 117.061 29.866 117.426 28.0796ZM117.344 20.8335C116.943 19.0835 116.314 17.689 115.457 16.6499C114.509 15.4832 113.388 14.8999 112.094 14.8999H105.504C104.738 14.8999 104.128 15.2007 103.672 15.8022C103.234 16.4038 103.016 17.1239 103.016 17.9624C103.016 18.7463 103.225 19.4207 103.645 19.9858C104.082 20.5509 104.702 20.8335 105.504 20.8335H117.344ZM149.555 41.2046H138.645C134.725 41.2046 131.635 39.5002 129.375 36.0913C127.333 33.0288 126.312 29.2554 126.312 24.771C126.312 20.2137 127.352 16.3309 129.43 13.1226C131.727 9.56787 134.798 7.79053 138.645 7.79053H149.555C153.401 7.79053 156.473 9.56787 158.77 13.1226C160.848 16.3309 161.887 20.2228 161.887 24.7983C161.887 29.2827 160.875 33.047 158.852 36.0913C156.591 39.5002 153.492 41.2046 149.555 41.2046ZM148.324 33.9585C150.074 33.9585 151.478 32.9377 152.535 30.896C153.501 29.0366 153.984 26.7944 153.984 24.1694C153.984 21.6174 153.52 19.4754 152.59 17.7437C151.551 15.8114 150.129 14.8452 148.324 14.8452H139.875C138.07 14.8452 136.648 15.8114 135.609 17.7437C134.68 19.4754 134.215 21.6174 134.215 24.1694C134.215 26.8127 134.689 29.0549 135.637 30.896C136.694 32.9377 138.107 33.9585 139.875 33.9585H148.324ZM185.867 41.2046H174.957C171.038 41.2046 167.948 39.5002 165.688 36.0913C163.646 33.0288 162.625 29.2554 162.625 24.771C162.625 20.2137 163.664 16.3309 165.742 13.1226C168.039 9.56787 171.111 7.79053 174.957 7.79053H185.867C189.714 7.79053 192.785 9.56787 195.082 13.1226C197.16 16.3309 198.199 20.2228 198.199 24.7983C198.199 29.2827 197.188 33.047 195.164 36.0913C192.904 39.5002 189.805 41.2046 185.867 41.2046ZM184.637 33.9585C186.387 33.9585 187.79 32.9377 188.848 30.896C189.814 29.0366 190.297 26.7944 190.297 24.1694C190.297 21.6174 189.832 19.4754 188.902 17.7437C187.863 15.8114 186.441 14.8452 184.637 14.8452H176.188C174.383 14.8452 172.961 15.8114 171.922 17.7437C170.992 19.4754 170.527 21.6174 170.527 24.1694C170.527 26.8127 171.001 29.0549 171.949 30.896C173.007 32.9377 174.419 33.9585 176.188 33.9585H184.637Z" fill="#00BD39"/>
<line x1="0.894531" y1="26.8281" x2="199.855" y2="26.8281" stroke="black" stroke-width="3"/>
<line x1="0.894531" y1="21.6631" x2="199.855" y2="21.6631" stroke="black" stroke-width="3"/>
<line x1="0.894531" y1="16.439" x2="199.855" y2="16.439" stroke="black" stroke-width="3"/>
<line x1="0.894531" y1="11.2734" x2="199.855" y2="11.2734" stroke="black" stroke-width="3"/>
<line x1="0.894531" y1="37.3374" x2="199.855" y2="37.3374" stroke="black" stroke-width="3"/>
<line x1="0.894531" y1="32.1719" x2="199.855" y2="32.1719" stroke="black" stroke-width="3"/>
</svg>
