<svg width="30" height="17" viewBox="0 0 30 17" fill="none" xmlns="http://www.w3.org/2000/svg">
<path d="M11.7918 3.21679H17.5269V0.398926H11.7918V3.21679Z" fill="#2BD52D"/>
<path d="M6.05647 6.0346H11.7916L11.7918 3.21679L6.05647 3.21672V6.0346Z" fill="#2BD52D"/>
<path d="M0.321289 8.85222H6.05643L6.05647 6.0346L0.321289 6.03434V8.85222Z" fill="#2BD52D"/>
<path d="M11.7919 14.144H17.527V16.9619H11.7919V14.144Z" fill="#2BD52D"/>
<path d="M6.05655 11.3262H11.7917L11.7919 14.144L6.05655 14.1441V11.3262Z" fill="#2BD52D"/>
<path d="M0.321371 8.50858H6.05651L6.05655 11.3262L0.321371 11.3265V8.50858Z" fill="#2BD52D"/>
<path d="M23.2952 11.3262H17.5601L17.4937 14.1773L23.2952 14.1441V11.3262Z" fill="#2BD52D"/>
<path d="M29.0304 8.50856H23.2953L23.2952 11.3262L29.0304 11.3264V8.50856Z" fill="#2BD52D"/>
<path d="M23.2952 6.03461H17.5601L17.4936 3.18346L23.2952 3.21673V6.03461Z" fill="#2BD52D"/>
<path d="M29.0304 8.85223H23.2952L23.2952 6.03461L29.0304 6.03435V8.85223Z" fill="#2BD52D"/>
<path d="M11.6671 6.84226H17.6671V10.7207H11.6671V6.84226Z" fill="#2BD52D"/>
</svg>
